<svg id="Layer_1" data-name="Layer 1" xmlns="http://www.w3.org/2000/svg" viewBox="0 0 571.56 576.78"><defs><style>.cls-1{fill:#ffe500;}.cls-1,.cls-2,.cls-3,.cls-4{fill-rule:evenodd;}.cls-2{fill:#e12027;}.cls-3{fill:#221f1f;}.cls-4,.cls-5{fill:#fff;}</style></defs><title>logoParecis</title><path class="cls-1" d="M175.24,93.09a101.82,101.82,0,0,0-72,124.72l41,152.78H671.33L595,85.91A101.82,101.82,0,0,0,470.26,14Z" transform="translate(-99.78 -10.45)"/><path class="cls-2" d="M118.75,431.79l21.46,80a101.82,101.82,0,0,0,124.72,72l295-79.14a101.78,101.78,0,0,0,72.21-72.8Z" transform="translate(-99.78 -10.45)"/><path class="cls-3" d="M297.07,150.64q21,.29,31.52,17.7t10.81,48.6a148.06,148.06,0,0,1-2,24,126,126,0,0,1-6,23A13.06,13.06,0,0,1,329,268.8a15.16,15.16,0,0,1-4.35,4.14,55.88,55.88,0,0,1-12.47,5.72A46.72,46.72,0,0,1,298.41,281q-20.18.18-33-14.17t-13.32-45.41q.45-28.55,13-49.17t32-21.62Zm157.61,186q-23.39-.48-37.82-14.81t-15.21-36.67A56.66,56.66,0,0,1,411.38,253q9.6-14.2,27.24-28.11a2.94,2.94,0,0,1,3.9,0q30.6,21.94,43.53,37.45t12.9,32q-.49,19.54-13,30.79T454.68,336.6ZM474.12,78.69q18.63.48,30.23,14.08T516,127.26a64.62,64.62,0,0,1-6.27,29.21q-6.46,13.36-22,26.65c-.72.68-1.34.9-1.88.67a4.44,4.44,0,0,1-1.52-1.15q-25.45-16.39-37.58-30.6t-12.05-30.61Q435,102.83,445.84,91t28.28-12.27Zm12.66-19.37A119.35,119.35,0,0,0,454,63.68,106.48,106.48,0,0,0,423.06,78.2,92.46,92.46,0,0,0,395,107.89q-10,17.27-9.83,38.8a63.35,63.35,0,0,0,10.08,34.12q9.94,15.7,28.29,30.49,1.45,2.17,0,2.91-18.1,11-31.18,20.27c.24-3.58.38-7.18.41-10.82a113.05,113.05,0,0,0-9.6-45.81,79,79,0,0,0-27.82-33.45q-18.42-12.61-45.82-13a109.22,109.22,0,0,0-28.68,3.85,123.24,123.24,0,0,0-24.34,9.54q-26.92,14.7-41.83,39.24t-15.13,55.72q.66,29.79,17.41,50.47t45.78,21.59q10.47.09,25.35-4.42t33-14.8a1.43,1.43,0,0,1,1.79.05,1.64,1.64,0,0,1,.45,1.73q-15.67,31.18-46,60.26a226.4,226.4,0,0,1-17.25,14.87h-137l16.69,62.25h513.4a101.52,101.52,0,0,0-.24-51.91l-2.78-10.34h-336a229.84,229.84,0,0,0,46.4-48.45l.29.5q9,14.94,28.69,25t51.93,10.4q30.54-.26,55.78-11.89t40.42-31.52a74.17,74.17,0,0,0,15.59-44.92,62,62,0,0,0-11.6-36.13q-11.58-16.65-38.91-37.22c-.73-.47-1.09-.87-1.09-1.22s.36-.74,1.09-1.21q31.32-19.87,44.5-35.21t12.81-36.68q-.24-24.87-19.36-42.82T486.78,59.32Z" transform="translate(-99.78 -10.45)"/><path class="cls-4" d="M388.54,461.73h-3l-2.12,6.17h3.4l.2,0,.2,0,.19,0,.19,0,.18,0,.18,0,.18,0,.17,0,.17,0,.16,0,.16,0,.3-.09.28-.11.27-.11.26-.13.24-.14.23-.15.22-.17.2-.18.2-.19.18-.2.17-.22.15-.23.15-.25.14-.26.12-.29.11-.3.11-.37.08-.33,0-.29v-.27l0-.23,0-.21-.07-.18-.08-.16,0,0-.05-.05-.07-.06-.1-.07-.12-.06-.16-.07-.18-.07-.21-.06-.24-.06-.27-.05-.29,0-.32,0-.34,0-.37,0h-.81ZM185.73,525.29l17.48-21.15c-7.39-.11-24.12-.45-26.4-1.05a25.32,25.32,0,0,1-7.51-3.32,17.69,17.69,0,0,1-6.9-8.86q-2.28-5.91.21-15.07a33.74,33.74,0,0,1,6.44-12.22,36.06,36.06,0,0,1,9-7.72,35.26,35.26,0,0,1,11.34-4.2,47.85,47.85,0,0,1,9.32-.91l53.09.17c5,0,7.33,3.55,6.2,10.82-1.25,7.84-10.26,68.59-11.43,75.61-1,6.21-4.78,10-9.59,10H226.14c-5.08,0-8.69-3.49-7.91-10,.73-6.17,11.33-73.54,11.93-77.65a3.29,3.29,0,0,0-.14-1.26,3.21,3.21,0,0,0-.29-.73,23.93,23.93,0,0,0-5-.67c-10.21.25-17.73,15.17-19.65,21.75q-2,6.48-1.31,10.63a9.65,9.65,0,0,0,3.82,6.47,11.43,11.43,0,0,0,3.35,1.4,17.56,17.56,0,0,0,4.18.45c1,0,1.94,0,2.75-.09a16.57,16.57,0,0,0,1.81-.2.93.93,0,0,1,.26.63,1.51,1.51,0,0,1-.14.93,8.52,8.52,0,0,1-1.26,2.07,3.92,3.92,0,0,1-1.12,2.69L193.54,533a3.84,3.84,0,0,1-5.45.08l-2.34-2.32a3.9,3.9,0,0,1,0-5.49Zm93,12.55c1.06-6.17,11.21-73.53,11.82-77.64a4,4,0,0,1,.49-1.26,4.3,4.3,0,0,1,.51-.73,26,26,0,0,1,5.19-.67c10.13.26,13.28,15.17,13.29,21.75a24.62,24.62,0,0,1-1.8,10.63,14.43,14.43,0,0,1-5.69,6.46,15.58,15.58,0,0,1-3.76,1.41,18.66,18.66,0,0,1-4.31.44c-1,0-1.92,0-2.71-.08S290.4,498,290,498a1.29,1.29,0,0,0-.45.62,1.52,1.52,0,0,0-.12.95,5.93,5.93,0,0,0,.79,2.32,6.57,6.57,0,0,0,1.66,2.22c.78.14,1.69.28,2.75.39s26.33.16,27.76.18a36.62,36.62,0,0,0,8.8-1.09,34.19,34.19,0,0,0,8.47-3.31,27,27,0,0,0,9.48-8.87q4-5.89,4.19-15.07a25.36,25.36,0,0,0-2.88-12.2,23.48,23.48,0,0,0-6.76-7.73,26.5,26.5,0,0,0-10.1-4.21,44.58,44.58,0,0,0-9-.9c-3.64,0-41.19.12-53.1.18-5,0-8.37,3.53-9.34,10.8-1,7.84-10.86,68.61-11.72,75.61-.77,6.22,4.78,10,9.59,10h9.87c5.07,0,7.74-3.48,8.87-10ZM399.6,515.17l1-11.59L396,517.13l-.17.44-.19.43-.2.41-.23.39-.25.36-.28.33-.29.31-.32.28-.33.24-.33.21-.35.17-.36.15-.37.12-.38.08-.38.05-.39,0-.38,0-.37-.05-.35-.09-.34-.14-.32-.19-.28-.23-.25-.27-.2-.31-.17-.35-.11-.38-.05-.4v-.4l0-.42.08-.43.11-.45.14-.46,8.1-23.53.19-.51.22-.48.25-.45.28-.42.3-.37.34-.34.36-.29.39-.24.39-.19.4-.16.41-.14.42-.11.44-.09.45-.06.46,0,.46,0h2.73l.37,0,.35,0,.33.05.3.06.28.09.27.1.25.13.24.17.22.2.18.23.15.25.11.27.08.27,0,.27,0,.26,0,.28v.64l0,.35v.39l0,.41,0,.44-.95,12.57,8-13.11.26-.44.26-.4.24-.38.23-.35.22-.32.2-.29.2-.26.19-.24.19-.22.21-.22.22-.2.24-.18.24-.17.26-.15.27-.13.28-.1.28-.09.31-.07.33-.06.34-.05.37,0,.39,0H424l.46,0,.45,0,.42.07.4.09.38.12.36.15.34.2.32.24.3.32.23.4.13.44.06.45v.46l-.06.48-.12.5-.16.51-8.1,23.54-.16.44L419,518l-.21.41-.23.38-.25.36-.27.34-.3.31-.31.28-.33.24-.34.21-.35.17-.36.15-.37.12-.38.08-.39.05-.39,0-.38,0-.36-.05-.35-.1-.34-.14-.31-.18-.28-.23-.25-.27-.21-.31-.17-.37-.1-.38-.05-.39v-.41l0-.41.07-.43L412,517l.15-.45,4.26-12.41-6.93,11.57-.26.45-.26.42-.24.38-.22.36-.21.33-.19.3-.18.27-.17.25-.18.24-.19.25-.22.23-.23.24-.24.22-.26.21-.26.21-.29.2-.32.2-.35.18-.35.15-.37.12-.38.09-.39.07-.4,0-.4,0h-.31l-.3,0-.29,0-.29-.07-.27-.08-.27-.12-.25-.14-.22-.15-.19-.17-.18-.18-.17-.19-.14-.21-.13-.21-.11-.23-.08-.24-.07-.23-.05-.22,0-.23,0-.23,0-.23V517l.13-1.81ZM388,495.55h.4l.39,0,.39-.06.37-.09.36-.11.35-.14.32-.17.3-.19.28-.2.26-.23.24-.24.22-.27.19-.28.18-.29.14-.31.12-.32.1-.32.07-.32,0-.33v-.33l-.05-.32-.09-.32-.14-.3-.18-.28-.24-.26-.28-.22-.31-.17-.33-.13-.35-.1-.36-.06-.38,0H374.84l-.34,0-.34,0-.33,0-.31.06-.31.08-.31.09-.28.11-.28.11-.28.14-.27.16-.26.18-.25.19-.24.21-.22.23-.21.24-.19.25-.18.26-.17.28-.17.29-.15.31-.14.32-.14.34-.12.33-7.87,22.89-.15.48-.12.47-.08.46,0,.45v.43l.06.42.12.4.18.37.23.33.26.28.3.24.33.19.36.15.38.09.4.06.41,0,.4,0,.4-.05.4-.09.39-.12.38-.15.37-.19.35-.22.35-.25.34-.29.32-.32.3-.36.27-.39.26-.41.22-.45.21-.46.18-.49,3.16-9.18h9.4l.38,0,.38,0,.36-.06.36-.08.34-.11.33-.13.31-.15.31-.19.28-.2.25-.22.23-.24.22-.25.19-.28.17-.29.15-.31.11-.31.1-.32.07-.32,0-.32v-.32l0-.33-.09-.31-.14-.29-.18-.29-.24-.26-.27-.21-.3-.17-.32-.12-.34-.09-.35-.06-.37,0H374.6l2-5.8Zm156.38-20.18-.11.32-.12.31-.14.31-.14.31-.15.3-.16.3-.17.29-.18.29-.18.29-.2.27-.2.28-.22.27-.22.27-.23.26-.24.26-.24.25-.26.24-.26.25-.27.23-.27.23-.29.22-.29.22-.3.21-.3.2-.31.19-.32.19-.33.17-.33.18-.34.16-.34.16-.36.15-.35.14-.37.14-.36.13-.38.11-.37.11-.38.1-.39.1-.39.08-.39.07-.4.07-.39.05-.41.05-.4,0-.42,0-.41,0h-1.83l-.48,0-.46-.05-.45-.05-.44-.07-.42-.07-.41-.1-.4-.1-.38-.12-.37-.13-.36-.15-.34-.16-.33-.17-.32-.19-.31-.21-.4-.31-.37-.35-.34-.37-.3-.4-.27-.42-.24-.45-.2-.46-.16-.48-.07-.26-.06-.25-.05-.25,0-.25,0-.25,0-.25,0-.25v-.5l0-.24,0-.25,0-.24.05-.25.06-.24.06-.24.08-.25.12-.29.14-.29.16-.28.19-.26.2-.25.23-.24.24-.23.27-.21.28-.2.29-.17.3-.15.31-.12.32-.1.32-.07.33,0,.34,0h.28l.27,0,.27.07.26.09.25.12.23.16.21.19.17.2.16.22.12.24.11.25.08.26.07.26.05.28,0,.28,0,.28,0,.29,0,.27,0,.25,0,.23,0,.23.05.21.06.19.05.16,0,.14.07.12.07.11.09.12.1.11.12.11.14.1.15.1.16.09.18.08.22.07.25.06.28.05.32,0,.34,0h.91l.26,0,.26,0,.25,0,.25,0,.24-.05.23-.06.24-.06.23-.08.22-.07.22-.09.22-.09.21-.11.21-.1.2-.12.4-.25.35-.26.3-.26.27-.28.23-.28.19-.29.16-.31.13-.32.07-.24.06-.23,0-.2v-.31l0-.13,0-.1-.06-.11-.08-.12-.11-.12-.12-.12-.14-.11-.15-.11-.18-.1-.2-.1-.23-.1-.27-.1-.29-.1-.33-.11-.36-.1-.38-.12-.42-.11-.44-.11-.47-.12-.33-.08-.33-.09-.31-.09-.31-.09-.31-.09-.29-.1-.29-.1-.28-.1-.27-.1-.27-.1-.25-.11-.25-.11-.25-.11-.23-.11-.23-.12-.23-.12-.44-.26-.41-.29-.38-.32-.35-.34-.32-.37-.27-.4-.24-.42-.2-.44-.09-.25-.07-.25-.06-.25,0-.26,0-.26,0-.27v-.82l0-.28,0-.28.05-.29.07-.29.07-.3.09-.3.1-.31.11-.29.12-.29.12-.28.13-.28.14-.28.15-.27.16-.27.17-.26.17-.26.19-.25.19-.25.2-.25.21-.24.22-.24.22-.23.24-.22.24-.23.24-.21.26-.21.26-.2.27-.2.27-.19.28-.18.29-.17.29-.17.3-.17.3-.15.31-.15.32-.14.32-.14.33-.13.34-.12.34-.12.34-.1.35-.1.35-.1.36-.08.35-.08.37-.07.36-.06.37-.06.37-.05.38,0,.38,0,.38,0,.39,0h1.71l.3,0,.29,0,.28,0,.28,0,.27,0,.27,0,.26.05.25,0,.25.07.24.06.24.07.23.08.23.08.41.17.4.18.38.21.36.22.33.23.32.26.29.27.25.29.24.29.21.29.18.31.17.31.14.32.11.33.09.33.06.33,0,.32,0,.32v.32l0,.32,0,.32,0,.31-.08.32-.1.32-.12.29-.14.29L547,464l-.18.26-.21.26-.22.25-.25.23-.26.23-.28.21-.29.19-.3.16-.32.14-.32.11-.32.08-.34.05h-.61l-.28,0-.26-.05-.26-.08-.25-.11-.24-.15-.22-.19-.17-.21-.13-.2-.11-.2-.09-.2-.08-.22-.08-.24-.07-.24-.06-.26-.06-.28-.06-.34-.06-.29-.08-.27-.09-.24-.1-.21-.1-.2-.12-.17-.11-.14-.1-.09-.13-.09-.19-.09-.25-.09-.32-.07-.37-.05-.43,0h-1l-.22,0-.22,0-.22,0-.2,0-.21,0-.2,0-.2.05-.19.06-.19.06-.18.07-.18.07-.18.09-.17.08-.17.1-.34.2-.28.2-.25.2-.21.21-.18.21-.14.21-.11.21-.1.23,0,.13,0,.12,0,.11v.31l0,.05,0,.06,0,.07,0,.06.06.07.07.07.08.08.09.07.11.08.13.08.13.08.13.07.14.07.14.07.14.06.14.06.15.05.16,0,.22.06.24.08.27.08.3.09.33.09.35.1.38.1.25.07.25.06.26.07.25.07.24.07.25.07.24.07.23.07.24.07.23.08.22.07.22.08.22.08.22.08.21.08.21.08.42.17.4.18.38.2.36.2.35.21.32.23.31.24.29.25.28.28.26.3.23.32.2.34.17.36.14.37.12.38.08.4,0,.21,0,.22v1.12l0,.23,0,.24,0,.24,0,.24-.05.25-.07.25-.07.26-.08.25-.09.26Zm-35.86,4.45-.14.43-.1.42-.07.41,0,.4v.38l.06.38.1.37.16.34.21.31.24.26.27.22.3.18.33.13.34.09.35.05.36,0,.37,0,.37,0,.36-.08.36-.11.35-.14.33-.17.32-.2.32-.23L514,483l.28-.29.26-.32.25-.35.22-.36.2-.39.18-.42.16-.42,7-20.49.13-.43.11-.42.07-.42,0-.4v-.39l-.06-.38-.11-.37-.17-.34-.21-.3-.24-.26-.28-.22-.31-.17-.33-.13-.35-.09-.36-.05h-.73l-.37.05-.35.08-.35.11-.34.14-.33.18-.32.2-.31.23-.3.25-.29.3-.26.31-.24.34-.22.37-.2.39-.18.41-.16.42-7,20.49ZM504.71,475l-.13.36-.16.36-.18.36-.2.37-.22.36-.24.37-.26.38-.29.38-.31.39-.34.38-.35.38-.37.37-.4.38-.42.37-.43.36-.46.37-.25.18-.24.18-.26.17-.25.17-.26.17-.27.16-.27.15-.27.16-.28.14-.28.15-.29.13-.29.14-.29.13-.3.12-.3.12-.31.12-.32.11-.32.11-.32.09-.33.09-.33.09-.33.07-.33.07-.34.06-.34,0-.34.05-.35,0-.35,0-.35,0h-.35l-.36,0h-1.67l-.25,0-.24,0-.25,0-.24,0-.24,0-.23,0-.23,0-.23,0-.22-.05-.22-.05-.22,0-.41-.11-.41-.13-.4-.14-.38-.16-.37-.18-.36-.19-.34-.21-.33-.23-.31-.26-.3-.26-.28-.29-.26-.3-.25-.32-.24-.33-.22-.35-.2-.37-.17-.35-.15-.36-.14-.37-.12-.37-.11-.38-.09-.4-.08-.4-.06-.4-.06-.41,0-.42,0-.43v-.87l0-.44,0-.45.06-.45,0-.24,0-.23,0-.23.05-.23,0-.24.05-.23.06-.24.06-.24.05-.24.07-.24.07-.24.07-.25.07-.24.08-.25.08-.25.08-.25.15-.4.14-.4.16-.4.16-.38.16-.39.17-.37.18-.38.18-.37.19-.36.2-.36.2-.35.21-.35.21-.34.22-.34.22-.33.23-.32.23-.32.24-.32.25-.31.24-.3.25-.3.26-.29.26-.29.27-.28.27-.27.28-.27.28-.27.28-.26.29-.25.29-.24.3-.24.3-.24.31-.23.31-.22.31-.21.31-.21.32-.2.32-.19.32-.18.32-.18.33-.18.33-.16.33-.16.34-.15.33-.15.34-.14.35-.13.34-.12.34-.12.35-.11.34-.1.35-.1.35-.09.34-.08.35-.07.35-.07.34,0,.35-.05.35-.05.35,0,.35,0,.34,0h1.12l.41,0,.4,0,.39,0,.39.05.38.06.37.07.36.08.36.09.34.1.34.12.33.12.32.14.31.15.31.16.3.17.54.36.5.38.46.4.41.44.38.46.32.48.28.51.22.52.1.27.08.26.07.26.07.26,0,.26,0,.27,0,.26,0,.26v.51l0,.26,0,.25-.05.26,0,.25-.07.24-.08.26-.11.28-.14.28-.16.27-.18.26-.2.25-.22.23-.23.22-.26.21-.26.19-.27.18-.29.15-.29.13-.3.1-.31.08-.31,0-.3,0h-.32l-.29,0-.28-.06-.28-.08-.27-.11-.25-.15-.23-.19-.18-.22-.14-.21-.12-.21-.1-.23-.09-.24-.08-.26-.07-.27-.07-.29-.06-.28-.1-.44-.11-.38-.13-.35-.14-.31-.16-.28-.16-.25-.18-.21-.19-.19-.21-.17-.23-.14-.26-.12-.3-.11-.33-.08-.37-.07-.41,0-.45,0h-.36l-.36,0-.36,0-.35.06-.35.08-.35.09-.34.11-.34.13-.34.15-.34.17-.34.18-.33.2-.33.22-.33.24-.33.26-.33.28-.32.29-.31.31-.3.32-.29.34-.29.36-.28.37-.27.39-.26.4-.25.42-.24.44-.24.46-.23.47-.22.49-.21.5-.2.52-.19.54-.12.36-.11.36-.11.34-.09.33-.08.33-.07.32-.07.3-.05.3,0,.29,0,.28,0,.27v.26l0,.25v.68l.05.43.08.38.1.35.13.31.14.27.17.24.19.22.22.2.11.08.13.09.13.08.14.08.15.07.16.06.16.06.17.06.17,0,.19.05.19,0,.2,0,.21,0,.22,0h1l.25,0,.26,0,.24,0,.25-.05.24,0,.24-.05.24-.07.23-.07.23-.09.23-.09.23-.09.23-.11.22-.11.22-.13.22-.13.22-.13.22-.15.22-.16.21-.16.21-.17.2-.18.21-.18.2-.2.2-.2.2-.21.19-.22.19-.23.19-.23.19-.25.18-.25.18-.25.19-.26.19-.25.19-.23.2-.23.2-.21.2-.21.22-.19.24-.2.28-.18.29-.16.3-.12.32-.09.32-.07.33,0h.35l.31,0,.3,0,.3.08.29.11.27.15.25.18.23.22.19.25.16.27.12.28.09.31,0,.31V474l0,.31-.06.31-.1.32Zm-27.58-13.12h.35l.35,0,.34-.06.33-.07.32-.1.31-.13.29-.14.28-.17.25-.19.24-.2.21-.22.2-.24.18-.26.15-.27.13-.27.11-.29.09-.29.06-.3,0-.29V458l-.05-.3-.09-.29-.12-.28-.17-.25-.22-.24-.26-.21-.29-.16-.3-.12-.31-.08-.33-.06-.34,0H464.13l-.31,0-.29,0-.3,0-.28.06-.28.07-.27.08-.26.09-.25.11-.25.12-.25.14-.23.16-.22.18-.21.19-.2.2-.18.21-.17.23-.17.23-.15.25-.15.26-.13.27-.13.28-.12.3-.11.3-6.73,19.57-.14.45-.11.44-.08.42,0,.41v.4l.06.4.12.37.19.36.24.31.31.26.34.2.37.15.39.11.42.07.44,0,.46,0h14.86l.35,0,.35-.05.33-.08.32-.1.31-.13.3-.16.28-.17.25-.19.24-.2.22-.22.2-.24.18-.25.15-.27.14-.28.11-.29.09-.3.07-.31,0-.3v-.31l-.05-.3-.08-.3L474,479l-.17-.27-.22-.24-.26-.21-.29-.16-.3-.13-.32-.08-.32-.06-.35,0H460.25l1.93-5.61H473l.34,0,.34-.06L474,472l.32-.1.3-.13.29-.15.27-.17.24-.19.23-.19.2-.22.19-.23.17-.24.15-.26.13-.27.11-.28.09-.29.05-.29,0-.29v-.3l-.05-.29-.08-.28-.13-.27-.16-.26-.22-.24-.26-.19-.28-.16-.29-.11-.3-.08-.32-.06-.33,0H464.16l1.59-4.6Zm-35.6-.11h-4.27l-1.84,5.36h4.81l.21,0,.2,0,.19,0,.19,0,.19,0,.18,0,.18,0,.17,0,.17,0,.16,0,.31-.08.29-.09.27-.1.26-.11.24-.13.23-.13.22-.14.2-.16.18-.16.17-.18.16-.19.15-.21.14-.23.13-.25.12-.26.1-.29.07-.22.05-.2,0-.19V463l0-.13,0-.13-.05-.11-.05-.1-.06-.1-.07-.08-.09-.09-.1-.08-.11-.07-.14-.08,0,0-.07,0-.1,0-.11,0-.14,0-.16,0-.17,0-.2,0-.21,0h-.23l-.24,0h-1.48Zm-12.87,21.73-.32.2-.33.17-.34.14-.36.1-.35.08-.37,0-.36,0-.39,0-.37-.05-.35-.08-.34-.14-.32-.18-.29-.24-.24-.28-.19-.31-.15-.34-.09-.37,0-.37v-.39l0-.39.07-.4.11-.41.13-.42,6.89-20,.16-.45.19-.43.21-.4.23-.38.25-.35.27-.32.3-.29.31-.26.34-.23.37-.19.39-.17.4-.13.42-.09L435,456l.46,0,.46,0h10l.39,0,.39,0,.37,0,.35,0,.33,0,.33,0,.33.06.31.07.31.08.29.1.29.11.27.12.25.12.29.15.3.18.28.2.27.22.25.23.23.25.22.27.19.28.18.3.16.31.13.32.12.33.09.35.07.35.05.36,0,.36V462l0,.37,0,.38-.07.38-.09.38-.11.38-.12.38-.14.39-.15.38-.16.37-.17.36-.19.35-.19.34-.21.33-.21.33-.23.31-.24.3-.25.3-.26.28-.27.28-.28.26-.3.25-.3.25-.32.23-.32.22-.33.22-.35.2-.36.2-.36.18-.38.18-.38.17-.4.16-.41.15-.41.14-.43.14-.13,0,.16.18.25.35.25.38.22.39.21.39.19.4.19.4.17.41.16.41.15.42.13.42.13.43.11.42.1.42.09.4.08.4.07.38.05.38,0,.36,0,.36,0,.34,0,.31v.83l0,.24,0,.24-.06.22-.08.2-.08.18-.1.18-.11.17-.12.17-.13.16-.14.15-.14.16L446,483l-.17.15-.17.13-.18.13-.19.12-.19.11-.19.1-.21.1-.22.09-.22.07-.22.06-.22.05-.22,0-.23,0h-.73l-.26,0-.26-.05-.26-.06-.24-.09-.24-.11-.22-.13-.2-.16-.17-.16-.15-.16-.13-.17-.12-.17-.11-.19-.1-.19-.09-.2-.08-.19-.06-.19-.07-.2-.06-.22-.07-.23-.07-.26-.08-.26-.08-.29-.08-.3-.93-3.51-.12-.46-.11-.42-.12-.39-.12-.36-.12-.32-.13-.29-.12-.26-.12-.23-.12-.2-.11-.18-.12-.15-.12-.13-.12-.11-.12-.09-.12-.08-.12-.07-.14-.05-.18-.06-.19,0-.22,0-.25,0-.27,0-.29,0H433.5l-2.66,7.74-.17.43-.18.42-.2.4-.23.37-.24.34-.26.32-.28.29-.3.26-.32.22Zm-21.89-11.65H412l-.18-7.09-5,7.09Zm5.44,8.17-.1-2.42h-9.37l-2.14,3-.34.47-.33.44-.31.4-.29.36-.28.33-.25.29-.25.26-.24.23-.26.21-.29.19-.3.15-.31.13-.33.1-.34.07-.35,0h-.36l-.33,0-.32,0-.31-.09-.3-.12-.29-.16-.26-.19-.23-.23-.21-.25-.17-.28-.14-.28-.1-.31-.06-.32,0-.32,0-.32.05-.32.09-.31.07-.17.06-.16.08-.16.07-.16.09-.17.09-.16.1-.16.1-.16.11-.16.12-.18.13-.18.14-.19.15-.21.16-.23.18-.23.18-.25,12.53-16.87,1.3-1.75.19-.26.2-.25.19-.24.19-.23.19-.22.19-.21.19-.2.19-.19.2-.18.21-.19.22-.17.23-.16.23-.16.24-.14.24-.13.25-.12.27-.12.28-.11.29-.09.3-.07.3-.05.3,0,.31,0h.63l.3,0,.3,0,.29.06.27.08.27.1.26.12.22.15.2.14.19.16.17.18.15.18.14.2.12.2.11.21.09.23.07.21.06.2.05.2,0,.2,0,.2,0,.21,0,.21,0,.22v.21l0,.21v.48l0,.26V461l0,.3,1.1,16.75,0,.48,0,.46v.83l0,.37,0,.35-.07.34-.09.3-.12.3-.14.29-.18.28-.19.27-.23.26-.24.24-.26.23-.29.23-.31.21-.31.18-.32.16-.33.13-.33.11-.34.07-.35,0-.33,0h-.4l-.19,0-.18,0-.18-.05-.18-.05-.17-.08-.17-.09-.15-.1-.13-.1-.13-.11-.12-.12-.11-.13-.09-.14-.09-.15-.08-.15-.06-.15-.06-.17-.05-.17,0-.17,0-.19,0-.19,0-.2,0-.21,0-.2V481l0-.19,0-.18v-.17l0-.17v-.17l0-.17Zm-26.46-6.33h-4.26l-2.32,6.76-.16.41-.18.41-.2.39-.22.37-.24.34-.27.31-.28.3-.31.26-.32.23-.32.21-.34.17L376,484l-.35.11-.35.09-.36,0-.36,0-.38,0-.35-.05-.35-.09-.33-.13-.32-.18-.28-.22-.24-.27-.2-.3-.15-.34-.11-.36-.05-.38v-.38l0-.4.07-.4.1-.42.13-.41,6.9-20.07.17-.45.19-.43.22-.41.23-.39.26-.35.29-.33.3-.29.34-.26.34-.22.38-.18.39-.16.41-.13.42-.09.45-.07.46,0h8.77l.34,0,.32,0,.32,0,.3,0,.29,0,.28,0,.27,0,.26,0,.25.05.24.05.23.06.23.07.4.13.39.17.37.18.36.21.33.24.31.26.29.28.26.3.24.32.21.34.18.36.15.37.13.39.09.4.07.41,0,.42v.88l0,.23,0,.22,0,.23,0,.23,0,.23-.05.24-.05.23-.06.24-.06.24-.07.24-.08.25-.08.25-.19.52-.2.5-.22.49-.24.48-.25.46-.27.44-.28.43-.3.42-.32.4-.33.38-.35.37-.36.35-.38.34-.39.32-.41.3-.42.29-.44.27-.45.25-.47.23-.48.21-.49.2-.5.18L391,473l-.53.15-.55.12-.55.11-.57.1-.58.07-.59.06-.6,0-.62,0Z" transform="translate(-99.78 -10.45)"/><path class="cls-5" d="M352.28,390.79h8.27c3.34,0,6.26,2.3,6.26,7.26,0,4.49-2.92,7.18-6.26,7.18h-4.49v5.64h-3.78Zm3.78,3.3v7.83h3.66c1.77,0,3.25-1.47,3.25-3.87,0-2.6-1.48-4-3.25-4Z" transform="translate(-99.78 -10.45)"/><path class="cls-5" d="M378.24,390.49c5.38,0,8.83,4.25,8.83,10.37s-3.45,10.31-8.83,10.31-8.74-4.26-8.74-10.31S372.92,390.49,378.24,390.49Zm0,17.1c3,0,5.11-2.18,5.11-6.73s-2.07-6.8-5.11-6.8-5,2.19-5,6.8S375.29,407.59,378.24,407.59Z" transform="translate(-99.78 -10.45)"/><path class="cls-5" d="M391.36,390.79h8.38c3.58,0,6.06,2.6,6.06,6.55a6,6,0,0,1-4.87,6.12c1.62,1.92,3.33,4.43,5.16,4.43a4.22,4.22,0,0,0,1.81-.5l.41,3a7.15,7.15,0,0,1-3.13.77c-4,0-6.74-6.09-8.86-7.59h-1.18v7.29h-3.78Zm3.78,9.8h3.6a3,3,0,0,0,3.19-3.22,3,3,0,0,0-3.19-3.28h-3.6Z" transform="translate(-99.78 -10.45)"/><path class="cls-5" d="M418.09,394.57v16.3h-3.78v-16.3h-5.5v-3.78h14.56v3.78Z" transform="translate(-99.78 -10.45)"/><path class="cls-5" d="M434.18,390.49c5.38,0,8.84,4.25,8.84,10.37s-3.46,10.31-8.84,10.31-8.74-4.26-8.74-10.31S428.87,390.49,434.18,390.49Zm0,17.1c3.05,0,5.11-2.18,5.11-6.73s-2.06-6.8-5.11-6.8-5,2.19-5,6.8S431.23,407.59,434.18,407.59Z" transform="translate(-99.78 -10.45)"/><path class="cls-5" d="M451.46,390.79h4.05l4.84,16,5-16h4.07l-6.73,20.08H458Z" transform="translate(-99.78 -10.45)"/><path class="cls-5" d="M472.55,410.87V390.79h13.62v3.33h-10v4.79h8.19v3.28h-8.19v5.37h10v3.31Z" transform="translate(-99.78 -10.45)"/><path class="cls-5" d="M490.48,410.87V390.79h3.78v16.77H503v3.31Z" transform="translate(-99.78 -10.45)"/><path class="cls-5" d="M518.83,402.39H510v8.48h-3.78V390.79H510v8.3h8.83v-8.3h3.79v20.08h-3.79Z" transform="translate(-99.78 -10.45)"/><path class="cls-5" d="M535.64,390.49c5.38,0,8.83,4.25,8.83,10.37s-3.45,10.31-8.83,10.31-8.74-4.26-8.74-10.31S530.32,390.49,535.64,390.49Zm0,17.1c3,0,5.11-2.18,5.11-6.73s-2.07-6.8-5.11-6.8-5,2.19-5,6.8S532.69,407.59,535.64,407.59Z" transform="translate(-99.78 -10.45)"/><path class="cls-5" d="M555.75,406.47a8.16,8.16,0,0,0,4.49,1.48c3.17,0,4.41-2.48,4.58-6.12a5.62,5.62,0,0,1-4.6,2.34c-4,0-6.27-2.45-6.27-6.53,0-4.34,2.87-7.15,6.8-7.15,5,0,7.85,4.14,7.85,10.37s-2.83,10.31-7.91,10.31a11.79,11.79,0,0,1-6-1.63Zm8.93-8c-.42-2.69-1.63-4.52-3.75-4.52a3.41,3.41,0,0,0-3.28,3.69c0,2.3,1.3,3.46,3.24,3.46A4.59,4.59,0,0,0,564.68,398.47Z" transform="translate(-99.78 -10.45)"/><path class="cls-5" d="M572.09,405.38c0-2.78,1.12-4.31,3.54-5a4.24,4.24,0,0,1-3-4.4c0-3.55,2.33-5.5,6.73-5.5s6.71,1.95,6.71,5.5a4.24,4.24,0,0,1-3,4.4c2.48.68,3.6,2.21,3.6,5,0,3.54-2.57,5.79-7.33,5.79S572.09,408.92,572.09,405.38Zm3.78-.56a3.56,3.56,0,0,0,7.09,0c0-1.72-1.06-3.08-3.58-3.08S575.87,403.1,575.87,404.82Zm.5-8.48a3,3,0,1,0,3-2.84C577.52,393.5,576.37,394.54,576.37,396.34Z" transform="translate(-99.78 -10.45)"/><path class="cls-5" d="M591.55,411.2A2,2,0,0,1,590.1,409c0-1.56.8-2.45,2.22-2.45a2.2,2.2,0,0,1,2.27,2.45,17.73,17.73,0,0,1-2.06,6.94l-2.07-.85Z" transform="translate(-99.78 -10.45)"/><path class="cls-5" d="M602.1,390.79h2.75v20.08h-3.76V395.25l-5,3-1.45-2.87Z" transform="translate(-99.78 -10.45)"/><path class="cls-2" d="M286.51,140.08q21,.28,31.53,17.71t10.81,48.6a148.15,148.15,0,0,1-2,24,126,126,0,0,1-6,23,12.94,12.94,0,0,1-2.35,4.82,15.14,15.14,0,0,1-4.34,4.14,55.88,55.88,0,0,1-12.47,5.72,47.38,47.38,0,0,1-13.82,2.35q-20.16.17-33-14.17T241.5,210.87q.45-28.53,13-49.17t32-21.62Zm157.62,186q-23.38-.48-37.83-14.81t-15.2-36.67a56.64,56.64,0,0,1,9.73-32.12q9.6-14.19,27.24-28.1a2.94,2.94,0,0,1,3.9,0q30.6,21.94,43.53,37.45t12.89,32q-.48,19.54-13,30.78t-31.25,11.47ZM463.57,68.13q18.63.5,30.23,14.09t11.61,34.49a64.51,64.51,0,0,1-6.26,29.21q-6.47,13.35-22,26.65c-.72.68-1.34.9-1.88.67a4.7,4.7,0,0,1-1.52-1.15q-25.47-16.4-37.58-30.6t-12-30.61q.31-18.6,11.13-30.47t28.28-12.28Zm12.66-19.36a119.35,119.35,0,0,0-32.78,4.36,106.48,106.48,0,0,0-30.94,14.52,92.46,92.46,0,0,0-28.05,29.69q-10,17.26-9.83,38.8a63.29,63.29,0,0,0,10.08,34.12Q394.66,186,413,200.74c1,1.46,1,2.43,0,2.92q-18.09,11-31.17,20.27c.24-3.58.38-7.18.41-10.82a112.89,112.89,0,0,0-9.61-45.81,78.94,78.94,0,0,0-27.81-33.45q-18.42-12.61-45.82-13a109.22,109.22,0,0,0-28.68,3.85A123.58,123.58,0,0,0,246,134.28q-26.91,14.7-41.82,39.24T189,229.23q.66,29.8,17.41,50.48T252.2,301.3q10.47.09,25.35-4.42t33-14.81a1.41,1.41,0,0,1,1.78.06,1.62,1.62,0,0,1,.46,1.73q-15.68,31.17-46,60.26t-80,52.55c-.46,2,.14,5,1.79,8.91s3.13,6.35,4.45,7.22q54-14.24,96.65-43.52,36.9-25.33,60.42-58.74l.29.5q9,14.94,28.69,24.95T431,346.39q30.56-.25,55.79-11.9T527.2,303a74.19,74.19,0,0,0,15.59-44.92,62.09,62.09,0,0,0-11.6-36.13q-11.58-16.65-38.91-37.22c-.73-.47-1.09-.87-1.09-1.22s.36-.75,1.09-1.21q31.32-19.87,44.5-35.21t12.81-36.68q-.26-24.87-19.36-42.83T476.23,48.77Z" transform="translate(-99.78 -10.45)"/></svg>