<svg id="Layer_1" data-name="Layer 1" xmlns="http://www.w3.org/2000/svg" xmlns:xlink="http://www.w3.org/1999/xlink" viewBox="0 0 330 285.33"><defs><style>.cls-1{fill:#ff633e;}.cls-2{fill:url(#linear-gradient);}.cls-3{fill:#ffef4d;}.cls-4{fill:url(#linear-gradient-2);}.cls-5{fill:#fff;}.cls-6{fill:#c0242b;}</style><linearGradient id="linear-gradient" x1="89.42" y1="403.3" x2="342.25" y2="-34.6" gradientUnits="userSpaceOnUse"><stop offset="0" stop-color="#ffd43d"/><stop offset="1" stop-color="#fd9450"/></linearGradient><linearGradient id="linear-gradient-2" x1="33.38" y1="218.07" x2="337.32" y2="218.07" xlink:href="#linear-gradient"/></defs><title>pecaSuaMusica</title><path class="cls-1" d="M162.36,366.87A27.38,27.38,0,0,1,135.8,346.1l-2.6-10.44a3.61,3.61,0,0,1,7-1.74l2.59,10.44A20.15,20.15,0,0,0,174,356L344.51,235.43a27.56,27.56,0,0,0-5.53-48L114.1,96.05a20.16,20.16,0,0,0-27.66,20.54,3.61,3.61,0,1,1-7.18.72,27.37,27.37,0,0,1,37.56-27.94l224.87,91.35a34.76,34.76,0,0,1,7,60.6L178.15,361.85A27.37,27.37,0,0,1,162.36,366.87Z" transform="translate(-33.38 -81.54)"/><path class="cls-2" d="M119.58,317.75C198,362,306.16,329.27,334.13,276c35-66.67-33.1-175.63-134.8-186.11C148.7,84.64,95.43,106.79,65.71,148.1,49.85,170.16,28.18,266.2,119.58,317.75Z" transform="translate(-33.38 -81.54)"/><path class="cls-3" d="M136.06,97.18l189.64,77c1.82,3.25,3.53,6.54,5.09,9.85L126.13,100.93C129.39,99.57,132.71,98.32,136.06,97.18ZM343,245.34q.42-4.51.4-9.11L198.85,338.39c4.3.07,8.58,0,12.84-.24Z" transform="translate(-33.38 -81.54)"/><path class="cls-4" d="M230,354.6a3.61,3.61,0,0,1-.47-7.18c41.47-5.53,79.41-23.6,101.49-48.35a3.61,3.61,0,0,1,5.38,4.8c-23.54,26.39-62.15,44.87-105.92,50.69A3.88,3.88,0,0,1,230,354.6ZM48.34,265.31A3.61,3.61,0,0,1,45,263.14a138.91,138.91,0,0,1-8.15-25.28,150.8,150.8,0,0,1-2.39-50.58,3.61,3.61,0,1,1,7.16.86,143.29,143.29,0,0,0,2.27,48.17,131.41,131.41,0,0,0,7.73,24,3.61,3.61,0,0,1-3.31,5Zm-3.62-99.25a3.51,3.51,0,0,1-1.71-.44,3.62,3.62,0,0,1-1.46-4.89L50,145.13a3.61,3.61,0,0,1,6.34,3.44l-8.46,15.6A3.61,3.61,0,0,1,44.72,166.06ZM303.81,126.9a3.6,3.6,0,0,1-2.46-1,180.49,180.49,0,0,0-60.45-37.4,3.61,3.61,0,0,1,2.49-6.77,187.9,187.9,0,0,1,62.89,38.9,3.61,3.61,0,0,1-2.47,6.24Z" transform="translate(-33.38 -81.54)"/><path class="cls-5" d="M70.69,299.84q-.81,0-1.62-.06a7.21,7.21,0,0,1-4.65-2.69,18.38,18.38,0,0,1-4-15.1,7.17,7.17,0,0,1,2.69-4.64c.45-.3.91-.58,1.37-.86a36.88,36.88,0,0,0,3.37-2.27l3.59-2.81a46.6,46.6,0,0,0,7.84,29.36l-4.51-.64A35.73,35.73,0,0,0,70.69,299.84Zm40.47-23.33c3.91,14.64-.18,28-9.32,30.45a11.28,11.28,0,0,1-5.27.13l-.24,0c-7.64-1.76-14.74-10.52-17.77-21.82S77.33,262.78,83,257.51l.27-.24a11.38,11.38,0,0,1,4.61-2.5C97,252.33,107.25,261.88,111.16,276.51Zm-4.64,1.24c-3.11-11.63-11.07-20-17.39-18.34a6.67,6.67,0,0,0-2.69,1.49l-.23.2c-4.28,4-5.54,13.4-3,22.88s8.34,17,14.11,18.36l.18,0C105.81,304.08,110.1,291.16,106.52,277.75ZM93.79,291c4.57-1.4,7.06-6.39,5.73-11.37s-6-8.05-10.58-7l-.23.05a2.85,2.85,0,0,0-1.24.67c-1.93,1.79-2.47,5.83-1.39,9.88s3.57,7.27,6,7.85a3.3,3.3,0,0,0,1.51,0Z" transform="translate(-33.38 -81.54)"/><path class="cls-6" d="M86.39,249.17a15.18,15.18,0,0,0-6.2,3.36l-.37.32a21.78,21.78,0,0,0-5.51,8.76A15.83,15.83,0,0,1,69,268.69l-3.44,2.69c-.53.42-1.13.83-1.73,1.22a12.46,12.46,0,0,1-3.52,1.56l-14.09,3.77C38.39,280,33,287.74,34.52,295.74A15.4,15.4,0,0,0,48.69,308.3a5.4,5.4,0,0,1,4.57,2.84L62,328.2a6.53,6.53,0,0,0,7.46,3.32,6.84,6.84,0,0,0,1.3-.5l.44-.23A6.49,6.49,0,0,0,74,322l-7.64-14.91a2.16,2.16,0,0,1,1.36-3.07l.54-.14a12.38,12.38,0,0,1,3.83-.41c.72,0,1.44.1,2.11.19l4.32.62a16,16,0,0,1,8.11,3.5,21.83,21.83,0,0,0,9.17,4.85l.4.08a15.35,15.35,0,0,0,7.11-.17c11.68-3.13,17.1-19.49,12.35-37.27S98.07,246.05,86.39,249.17ZM101.84,307a11.28,11.28,0,0,1-5.27.13l-.24,0c-7.64-1.76-14.74-10.52-17.77-21.82S77.33,262.78,83,257.51l.27-.24a11.38,11.38,0,0,1,4.61-2.5c9.14-2.44,19.36,7.11,23.27,21.74S111,304.52,101.84,307Zm-32.77-7.18a7.21,7.21,0,0,1-4.65-2.69,18.38,18.38,0,0,1-4-15.1,7.17,7.17,0,0,1,2.69-4.64c.45-.3.91-.58,1.37-.86a36.88,36.88,0,0,0,3.37-2.27l3.59-2.81a46.6,46.6,0,0,0,7.84,29.36l-4.51-.64a35.73,35.73,0,0,0-4-.29Q69.88,299.83,69.07,299.78Zm20.06-40.37a6.67,6.67,0,0,0-2.69,1.49l-.23.2c-4.28,4-5.54,13.4-3,22.88s8.34,17,14.11,18.36l.18,0c8.31,1.71,12.6-11.21,9-24.62C103.41,266.12,95.45,257.73,89.13,259.41Zm-3,23.81c-1.08-4.05-.54-8.09,1.39-9.88a2.85,2.85,0,0,1,1.24-.67l.23-.05c4.6-1.05,9.25,2,10.58,7s-1.16,10-5.73,11.37l-.15.05a3.3,3.3,0,0,1-1.51,0C89.65,290.49,87.16,287.27,86.08,283.22Zm62.73-16.77a2.4,2.4,0,0,1-1.7,2.94L126.21,275a2.41,2.41,0,0,1-1.24-4.65l20.9-5.58A2.4,2.4,0,0,1,148.81,266.45Zm-34.09-13.1a2.41,2.41,0,0,1,0-3.4l11.9-11.89a2.4,2.4,0,0,1,3.39,3.41l-11.9,11.88a2.29,2.29,0,0,1-1.07.62A2.4,2.4,0,0,1,114.72,253.35Zm32,47.06a2.39,2.39,0,0,1-1.7,1.7,2.27,2.27,0,0,1-1.24,0l-16.25-4.36a2.4,2.4,0,0,1,1.25-4.64L145,297.47A2.39,2.39,0,0,1,146.69,300.41Z" transform="translate(-33.38 -81.54)"/><path class="cls-6" d="M193.21,246.59l.37,1.92-.42.33.4,1.26.33,1.59-.56.4.44,1.12a1.66,1.66,0,0,0-.73.43c-.11.11.15.51,0,.63-4.82-3.32-10.68-10.7-15.29-17.46.91,5.8,1.9,13.74,2.41,18.51.17,1.15-3.44,4.94-6,.94-2.41-2-6.55-5.73-10.86-9.43,2.76,7.4,4.54,13.18,4.54,13.18l-.65.21-.21,4-1,1v.94s-1-.24-1.38.16,0,1.55-.33,1.69c-2.32-6-10.82-25.49-15-32.14,0,0-.09-.07-.16-.09a.19.19,0,0,0,.07-.1,10.82,10.82,0,0,0-.89-1.31,8.33,8.33,0,0,1,3.7-2.08c2.27-1.78,5.24-2.74,7-.92,5.11,5.53,9.82,10.72,12.7,14a198.74,198.74,0,0,1-1.06-20,9.41,9.41,0,0,1-.56-1c1.28-2.11,5.64-5.11,7.79-3.49,1.24,1,1.94,2.83,4.05,6.93A185.94,185.94,0,0,0,193.21,246.59Z" transform="translate(-33.38 -81.54)"/><path class="cls-6" d="M206.59,244.89c10.08-6.21,1.71-29.59-4.12-31.86l.25-.54a5.22,5.22,0,0,1,.88-.15c.06,0,4.2,1.73,5.84,4.2a12.39,12.39,0,0,0-5.05-4.49c14.1-.09,22.15,34.16,7.13,36.82S192.1,234.49,191.18,230a63.73,63.73,0,0,1-.68-11.76s-.71-1.24-.46-1.56c1.15-1.55,8.16-3,9.14,1.52C199.48,219.5,198.68,238.15,206.59,244.89Zm-2.07-37.27a26.88,26.88,0,0,0-6.2,4.63c-2.84,1.94-3.75-.92-3.8-3.27.7-4.93,4-7.68,5.14-7.61C201.78,201.48,205.86,203.4,204.52,207.62Z" transform="translate(-33.38 -81.54)"/><path class="cls-6" d="M245.07,215c-6.18.12-14.39,2.9-14.39,3.27-.08.94,19.5,3.64,19,15.49-.38,9.69-6.83,11.91-14.05,12s-12.08-7.24-11.9-11.33a27.38,27.38,0,0,1,1-6.72,50.59,50.59,0,0,0-.05,5.13,43,43,0,0,1,.51-5.72l.82-1,.28.62c-.62,16.19,18.93,9.67,19,7.16.17-4.56-22.57-5.57-22.23-14.64.17-4.56.75-4.36.75-4.36.2-5.71,17.61-7.37,19.33-7.4A5.17,5.17,0,0,1,245.07,215Z" transform="translate(-33.38 -81.54)"/><path class="cls-6" d="M256,209.29c2.25-.39,8.11-.51,6.94,8.53-1.27,10-3.65,22-3.65,22s-.25.39-.86,1.17c-.36.44-1.26,2-1.26,2a2.41,2.41,0,0,0-1.06.58,10.44,10.44,0,0,0-.53,1l-.41-.09-.73.92s-.34-.3-.45-.26c-.27.08-.49.63-.69.61-.15-2.07,2.58-29.83,1.94-35.69A1,1,0,0,1,256,209.29Z" transform="translate(-33.38 -81.54)"/><path class="cls-6" d="M277.48,247.18c-7.06,0-14.46-5.19-14.12-16.66.63-20,22.65-22.51,22.52-15.81-.05,2.3-1.25,5.92-2.92,6.6-8.33-4.22-15.22,3.5-15.41,10-.15,3.29,3.89,7.94,9.54,7.93,6.7,0,11.76-6.68,11.81-9.35.05-1.94,1.15.05,1.15.05C292.59,239.19,286.64,247.16,277.48,247.18Z" transform="translate(-33.38 -81.54)"/><path class="cls-6" d="M318.11,240.53a6.06,6.06,0,0,1-.12,1.71c-.06.27-.5.55-.59.67s.05.31-.09.44a2.31,2.31,0,0,1-.47.38,2,2,0,0,1-.82.23c-1.08.16-3.56-2.65-6.35-6.83a9.14,9.14,0,0,1-1.08.58c-2.37.08-7.85,1.69-11.3,2.68-.85,2.45-1.76,4.86-2.83,7.3-.24.14-.33-.43-.68-.64-.18-.14-.54.29-.77.11a11.93,11.93,0,0,1-.55-1.56,1.48,1.48,0,0,1-1.12-.73,12.68,12.68,0,0,1-.15-2.1s-.47.76-.63.41a6.08,6.08,0,0,1-.33-1.9c.55-3.05,4.39-17.11,3.39-30.67,4.06-1.13,6.52-1.33,7.88-.74,2-.34,4,0,4.56,2.23a88.12,88.12,0,0,0,11.42,26c.19.56-.65-.48-.54-.08S318.06,240.22,318.11,240.53ZM306.37,232c-1.68-2.77-3.34-5.75-4.83-8.65-.61,3.37-1.26,6.48-2,9.39A58.72,58.72,0,0,1,306.37,232Z" transform="translate(-33.38 -81.54)"/><path class="cls-6" d="M88.16,218.92c1.07,3.41,1.81,5.7,1.81,5.7s-.11.72-.29,1.81c-.12.56-.21,2.45-.21,2.45a2.72,2.72,0,0,0-.72,1c0,.18,0,1.24,0,1.24l-.4.11-.25,1.23s-.46-.16-.53-.07c-.19.24-.12.83-.35,1-.51-.87-3.07-6.89-6-13.72-2.75-.54-5.53-2.31-7.29-6.73,0,0,.17-1.7.75-.25.31.78,1.88,1.34,4.11,1.41-1.28-2.93-2.59-5.79-3.74-8.26-.55.33-1.12.73-1.71,1.08-1.44,2.2-7.32-4.08-4-6.34.68-.43,1.47-1,2.29-1.47l-.06-.15a.88.88,0,0,1,.33-1,7.28,7.28,0,0,1,4.74-1.66c8.57-4.25,19.76-6.85,24.34,4.8C104.93,211.52,92.44,217.22,88.16,218.92ZM82.34,202c0,.14.11.29.17.43,1.22,3.35,2.45,6.86,3.53,10.15,5.78-2.47,11.59-7.82,10.53-11.06C95.76,198.94,90,198.82,82.34,202Z" transform="translate(-33.38 -81.54)"/><path class="cls-6" d="M133,201.61a4.92,4.92,0,0,1-.55,1.55l-.06.68-1.59,1.55,1.44-.3a12.46,12.46,0,0,0-1.82,1.9c-.57.95-.6,1.73-1.12,2.17a100.91,100.91,0,0,0-18.61,14.2c-1.3,1.29-6.28-4.21-4.32-6.32.3-.26.61-.52,1-.8-2.86-8.48-7.68-23.49-9.64-26.38a10.69,10.69,0,0,1,3.79-1.91c5-2.46,16.42-6,19.67-7.07a11.66,11.66,0,0,0,.41,1.3,5.66,5.66,0,0,0-1.2,1.58c-.1.2-.86,1.27-.86,1.27l1-.32-1.31,1.41.14.61s-1.72,1.53-2,1.73-5,2.64-9.14,4.77c.12.39.2.81.33,1.21.36,1.31.69,2.53,1,3.75a117.55,117.55,0,0,1,12.26-5,7.54,7.54,0,0,1-.07,1.17l.18,1.26L120.61,197l.65-.21-1.3,1.62.26.47L118.58,200l-.11.69s-1.53,1.42-2.13,1.94c-.3.1-2.83,1.83-5.06,3.26.64,2.71,1,4.83,1.23,6.14C118.45,207.55,126.89,202.45,133,201.61Z" transform="translate(-33.38 -81.54)"/><path class="cls-6" d="M145.91,211.88a6.77,6.77,0,0,1,1.62,3.11c-.82,3.27-4,3-5.55,2.43-.65-.22-1-2.5-.43-5.28-4.17-.55-10.08-3.31-12.43-13.19a51.22,51.22,0,0,1-.42-19.78c.49-.66,3.16-1.64,5.38-1.59,5.16-3.14,10.65,2.58,11.46,5.88.43,2-1.76,6.68-4.77,6.07a21.58,21.58,0,0,0-3.7-7.66c-.85,5.81-3.15,20.87,5.59,26.44,7.09-5.83,6.34-15.78,4.9-18.77.56-.13,1.31.71,1.31.71s1-.52,1.26-.36c.42.16,1,1.09,1,1.09a2,2,0,0,1,.91.21,10.79,10.79,0,0,1,2.85,5C156.25,201.92,152.24,210,145.91,211.88Z" transform="translate(-33.38 -81.54)"/><path class="cls-6" d="M185.7,201.42a5.68,5.68,0,0,1-.07,1.72c-.06.27-.49.56-.57.68s.05.31-.08.44a3.28,3.28,0,0,1-.46.4,2,2,0,0,1-.81.25c-1.08.19-3.64-2.55-6.54-6.67a6.38,6.38,0,0,1-1.06.61c-2.36.15-7.8,1.9-11.22,3-.79,2.48-1.64,4.91-2.64,7.37-.24.15-.34-.42-.7-.62-.18-.13-.53.31-.77.14a12.72,12.72,0,0,1-.59-1.55,1.45,1.45,0,0,1-1.13-.7,12.18,12.18,0,0,1-.21-2.09s-.45.77-.61.42a6.19,6.19,0,0,1-.39-1.89c.48-3.06,4-17.22,2.59-30.75,4-1.23,6.49-1.5,7.86-.94,1.95-.4,4-.11,4.62,2.11A87.91,87.91,0,0,0,185,199c.2.54-.66-.47-.54-.07S185.65,201.12,185.7,201.42Zm-12-8.21c-1.75-2.72-3.48-5.66-5.05-8.52-.52,3.38-1.09,6.51-1.75,9.44A59,59,0,0,1,173.74,193.21Z" transform="translate(-33.38 -81.54)"/><path class="cls-6" d="M220.69,170.65c-6.16.46-14.21,3.68-14.18,4,0,.95,19.66,2.59,19.81,14.44.14,9.7-6.18,12.27-13.38,12.8s-12.46-6.58-12.5-10.67a27.28,27.28,0,0,1,.6-6.76,50.25,50.25,0,0,0,.22,5.12,43.58,43.58,0,0,1,.21-5.73l.76-1,.31.61c.26,16.2,19.43,8.64,19.4,6.12-.07-4.56-22.84-4.34-23-13.41-.08-4.56.51-4.39.51-4.39-.11-5.72,17.18-8.31,18.9-8.44A5.17,5.17,0,0,1,220.69,170.65Z" transform="translate(-33.38 -81.54)"/><path class="cls-6" d="M239.81,196.06c11.16-3.94,7.91-28.56,2.7-32l.36-.48a6.7,6.7,0,0,1,.89,0c.05.06,3.74,2.58,4.82,5.35a12.21,12.21,0,0,0-4-5.46c13.8,2.89,14.43,38.06-.81,37.49s-15.94-18.16-15.89-22.76a64.14,64.14,0,0,1,1.82-11.64s-.43-1.36-.12-1.62c1.45-1.27,8.62-1.24,8.62,3.41C238.22,169.74,233.49,187.8,239.81,196.06Z" transform="translate(-33.38 -81.54)"/><path class="cls-6" d="M280.18,198.54a6.1,6.1,0,0,1-.44,1.66c-.12.26-.6.45-.71.55s0,.31-.17.41a3.19,3.19,0,0,1-.54.29,2,2,0,0,1-.84.07c-1.1-.05-3-3.28-4.94-7.92a7.24,7.24,0,0,1-1.17.36c-2.34-.36-8,.18-11.6.49-1.31,2.25-2.66,4.44-4.17,6.63-.27.09-.24-.49-.55-.76-.14-.16-.58.18-.78,0a11.9,11.9,0,0,1-.24-1.63,1.46,1.46,0,0,1-1-.93,12.74,12.74,0,0,1,.25-2.09s-.6.66-.69.29a6,6,0,0,1,0-1.94c1.13-2.89,7.57-16,9.16-29.46,4.21-.34,6.66-.08,7.88.76,2,0,3.89.75,4.05,3.06A88.24,88.24,0,0,0,280,196c.08.58-.55-.6-.52-.18S280.19,198.23,280.18,198.54Zm-9.91-10.6c-1.12-3-2.19-6.27-3.1-9.41-1.24,3.2-2.47,6.13-3.74,8.85A61.84,61.84,0,0,1,270.27,187.94Z" transform="translate(-33.38 -81.54)"/></svg>